<svg xmlns="http://www.w3.org/2000/svg" xmlns:xlink="http://www.w3.org/1999/xlink" width="500" zoomAndPan="magnify" viewBox="0 0 375 374.999991" height="500" preserveAspectRatio="xMidYMid meet" version="1.0"><defs><g/><clipPath id="de7e35ffac"><path d="M 165 117.65625 L 205 117.65625 L 205 188 L 165 188 Z M 165 117.65625 " clip-rule="nonzero"/></clipPath><clipPath id="3d5119e023"><path d="M 122.769531 138 L 172 138 L 172 191 L 122.769531 191 Z M 122.769531 138 " clip-rule="nonzero"/></clipPath><clipPath id="84871f8018"><path d="M 195.207031 126.1875 L 252.472656 126.1875 L 252.472656 154.066406 L 195.207031 154.066406 Z M 195.207031 126.1875 " clip-rule="nonzero"/></clipPath><clipPath id="cf4a8c0569"><path d="M 174.085938 151.664062 L 250.871094 151.664062 L 250.871094 191.152344 L 174.085938 191.152344 Z M 174.085938 151.664062 " clip-rule="nonzero"/></clipPath></defs><g clip-path="url(#de7e35ffac)"><path fill="#e71f69" d="M 170.648438 187.777344 C 170.648438 187.777344 170.742188 166.648438 204.53125 138.820312 C 204.53125 138.820312 169.453125 162.988281 172.804688 117.65625 C 172.804688 117.65625 157.0625 149.144531 170.648438 187.777344 " fill-opacity="1" fill-rule="nonzero"/></g><path fill="#e71f69" d="M 187.867188 129.164062 C 191.5 131.46875 192.410156 136.511719 189.898438 140.429688 C 187.386719 144.347656 182.402344 145.65625 178.765625 143.355469 C 175.132812 141.050781 174.222656 136.007812 176.734375 132.089844 C 179.25 128.171875 184.230469 126.863281 187.867188 129.164062 " fill-opacity="1" fill-rule="nonzero"/><g clip-path="url(#3d5119e023)"><path fill="#f8b31a" d="M 171.886719 190.9375 C 171.886719 190.9375 156.777344 178.519531 156.558594 138.292969 C 156.558594 138.292969 153.394531 177.292969 122.820312 148.414062 C 122.820312 148.414062 136.21875 177.984375 171.886719 190.9375 " fill-opacity="1" fill-rule="nonzero"/></g><path fill="#f8b31a" d="M 139.886719 144.464844 C 143.664062 143.234375 147.816406 145.535156 149.160156 149.609375 C 150.5 153.679688 148.527344 157.980469 144.75 159.210938 C 140.972656 160.441406 136.820312 158.136719 135.480469 154.066406 C 134.136719 149.992188 136.109375 145.695312 139.886719 144.464844 " fill-opacity="1" fill-rule="nonzero"/><path fill="#00a89f" d="M 243.78125 140.191406 L 220.796875 174.878906 C 195.652344 169.328125 179.625 176.945312 177.144531 178.496094 C 177.144531 178.496094 199.457031 139.992188 243.78125 140.191406 " fill-opacity="1" fill-rule="nonzero"/><g clip-path="url(#84871f8018)"><path fill="#f8b31a" d="M 252.472656 126.25 L 247.027344 134.464844 C 223.695312 134.0625 205.980469 144.886719 195.21875 154.058594 C 205.078125 142.871094 224.191406 126.683594 252.472656 126.25 " fill-opacity="1" fill-rule="nonzero"/></g><path fill="#e71f69" d="M 247.636719 147.292969 L 224.171875 181.863281 C 196.058594 175.183594 178.429688 183.40625 175.609375 184.871094 L 176.46875 181.304688 C 181.632812 178.84375 198.675781 173.113281 223.636719 179.042969 L 245.394531 146.800781 C 246.136719 146.949219 246.886719 147.113281 247.636719 147.292969 " fill-opacity="1" fill-rule="nonzero"/><g clip-path="url(#cf4a8c0569)"><path fill="#00609e" d="M 250.867188 152.207031 L 226.652344 187.804688 C 195.730469 180.457031 176.625 189.804688 174.097656 191.152344 L 174.953125 187.605469 C 180.359375 184.984375 198.773438 178.597656 225.996094 185.066406 L 248.578125 151.707031 C 249.335938 151.859375 250.097656 152.027344 250.867188 152.207031 " fill-opacity="1" fill-rule="nonzero"/></g><g fill="#203340" fill-opacity="1"><g transform="translate(116.561185, 230.191364)"><g><path d="M 16.59375 0 L 2.609375 0 L 2.609375 -21.171875 L 6.625 -21.171875 L 6.625 -3.140625 L 15.96875 -3.140625 Z M 16.59375 0 "/></g></g></g><g fill="#203340" fill-opacity="1"><g transform="translate(136.761534, 230.191364)"><g><path d="M 3.953125 -21.78125 C 4.597656 -21.78125 5.140625 -21.5625 5.578125 -21.125 C 6.023438 -20.695312 6.25 -20.160156 6.25 -19.515625 C 6.25 -18.867188 6.023438 -18.328125 5.578125 -17.890625 C 5.140625 -17.460938 4.597656 -17.25 3.953125 -17.25 C 3.328125 -17.25 2.796875 -17.460938 2.359375 -17.890625 C 1.929688 -18.328125 1.71875 -18.867188 1.71875 -19.515625 C 1.71875 -20.160156 1.929688 -20.695312 2.359375 -21.125 C 2.796875 -21.5625 3.328125 -21.78125 3.953125 -21.78125 Z M 5.96875 -15.09375 L 5.96875 0 L 1.9375 0 L 1.9375 -15.09375 Z M 5.96875 -15.09375 "/></g></g></g><g fill="#203340" fill-opacity="1"><g transform="translate(148.02927, 230.191364)"><g><path d="M 6.15625 -21.96875 L 6.15625 -14.625 C 6.757812 -14.957031 7.398438 -15.21875 8.078125 -15.40625 C 8.753906 -15.59375 9.359375 -15.6875 9.890625 -15.6875 C 12.117188 -15.6875 13.820312 -14.914062 15 -13.375 C 16.1875 -11.84375 16.78125 -9.9375 16.78125 -7.65625 C 16.78125 -5.375 16.171875 -3.460938 14.953125 -1.921875 C 13.742188 -0.390625 12.054688 0.375 9.890625 0.375 C 9.191406 0.375 8.40625 0.226562 7.53125 -0.0625 C 6.65625 -0.351562 5.878906 -0.757812 5.203125 -1.28125 L 4.203125 0 L 2.140625 0 L 2.140625 -21.625 Z M 8.84375 -3.078125 C 10.226562 -3.078125 11.203125 -3.578125 11.765625 -4.578125 C 12.328125 -5.585938 12.609375 -6.613281 12.609375 -7.65625 C 12.609375 -8.84375 12.359375 -9.898438 11.859375 -10.828125 C 11.359375 -11.765625 10.351562 -12.234375 8.84375 -12.234375 C 8.40625 -12.234375 7.953125 -12.15625 7.484375 -12 C 7.015625 -11.84375 6.570312 -11.628906 6.15625 -11.359375 L 6.15625 -3.953125 C 6.570312 -3.703125 7.015625 -3.492188 7.484375 -3.328125 C 7.953125 -3.160156 8.40625 -3.078125 8.84375 -3.078125 Z M 8.84375 -3.078125 "/></g></g></g><g fill="#203340" fill-opacity="1"><g transform="translate(169.412337, 230.191364)"><g><path d="M 10.796875 -11.015625 C 10.078125 -11.347656 9.40625 -11.601562 8.78125 -11.78125 C 8.15625 -11.957031 7.488281 -12.046875 6.78125 -12.046875 C 6.257812 -12.046875 5.859375 -11.945312 5.578125 -11.75 C 5.304688 -11.550781 5.171875 -11.273438 5.171875 -10.921875 C 5.171875 -10.671875 5.335938 -10.429688 5.671875 -10.203125 C 6.015625 -9.972656 6.570312 -9.726562 7.34375 -9.46875 C 8.613281 -9.007812 9.785156 -8.367188 10.859375 -7.546875 C 11.941406 -6.722656 12.484375 -5.660156 12.484375 -4.359375 C 12.484375 -2.859375 11.945312 -1.691406 10.875 -0.859375 C 9.8125 -0.0351562 8.25 0.375 6.1875 0.375 C 5.550781 0.375 4.695312 0.25 3.625 0 C 2.550781 -0.25 1.664062 -0.644531 0.96875 -1.1875 L 2.171875 -4.109375 C 2.898438 -3.773438 3.601562 -3.519531 4.28125 -3.34375 C 4.957031 -3.164062 5.570312 -3.078125 6.125 -3.078125 C 6.875 -3.078125 7.445312 -3.179688 7.84375 -3.390625 C 8.238281 -3.597656 8.4375 -3.867188 8.4375 -4.203125 C 8.4375 -4.617188 8.238281 -4.992188 7.84375 -5.328125 C 7.445312 -5.660156 6.820312 -5.957031 5.96875 -6.21875 C 4.769531 -6.613281 3.632812 -7.179688 2.5625 -7.921875 C 1.5 -8.660156 0.96875 -9.648438 0.96875 -10.890625 C 0.96875 -12.328125 1.492188 -13.453125 2.546875 -14.265625 C 3.609375 -15.085938 5.039062 -15.5 6.84375 -15.5 C 7.488281 -15.5 8.316406 -15.363281 9.328125 -15.09375 C 10.347656 -14.820312 11.242188 -14.425781 12.015625 -13.90625 Z M 10.796875 -11.015625 "/></g></g></g><g fill="#203340" fill-opacity="1"><g transform="translate(186.157918, 230.191364)"><g><path d="M 6.15625 -14.09375 C 6.820312 -14.613281 7.582031 -15.007812 8.4375 -15.28125 C 9.300781 -15.550781 10.078125 -15.6875 10.765625 -15.6875 C 12.816406 -15.6875 14.273438 -15.082031 15.140625 -13.875 C 16.003906 -12.675781 16.4375 -11.207031 16.4375 -9.46875 L 16.4375 0 L 12.390625 0 L 12.390625 -9.28125 C 12.390625 -10.226562 12.160156 -10.957031 11.703125 -11.46875 C 11.242188 -11.976562 10.570312 -12.234375 9.6875 -12.234375 C 9.101562 -12.234375 8.5 -12.082031 7.875 -11.78125 C 7.25 -11.476562 6.675781 -11.128906 6.15625 -10.734375 L 6.15625 0 L 2.140625 0 L 2.140625 -21.625 L 6.15625 -21.96875 Z M 6.15625 -14.09375 "/></g></g></g><g fill="#203340" fill-opacity="1"><g transform="translate(207.665486, 230.191364)"><g><path d="M 4.953125 -4.515625 C 4.953125 -4.078125 5.125 -3.6875 5.46875 -3.34375 C 5.820312 -3 6.289062 -2.828125 6.875 -2.828125 C 7.4375 -2.828125 8.003906 -2.953125 8.578125 -3.203125 C 9.148438 -3.453125 9.691406 -3.828125 10.203125 -4.328125 L 10.203125 -6.625 L 7.15625 -6.625 C 6.445312 -6.625 5.898438 -6.40625 5.515625 -5.96875 C 5.140625 -5.539062 4.953125 -5.054688 4.953125 -4.515625 Z M 6.9375 0.375 C 5.09375 0.375 3.722656 -0.0703125 2.828125 -0.96875 C 1.941406 -1.875 1.5 -3.054688 1.5 -4.515625 C 1.5 -6.066406 2.023438 -7.257812 3.078125 -8.09375 C 4.140625 -8.925781 5.519531 -9.34375 7.21875 -9.34375 L 10.171875 -9.34375 C 10.148438 -10.101562 9.925781 -10.695312 9.5 -11.125 C 9.082031 -11.550781 8.5 -11.765625 7.75 -11.765625 C 7.039062 -11.765625 6.269531 -11.664062 5.4375 -11.46875 C 4.613281 -11.269531 3.921875 -11.035156 3.359375 -10.765625 L 2.265625 -14.125 C 2.847656 -14.519531 3.734375 -14.847656 4.921875 -15.109375 C 6.117188 -15.367188 7.039062 -15.5 7.6875 -15.5 C 9.488281 -15.5 11.03125 -14.972656 12.3125 -13.921875 C 13.601562 -12.878906 14.25 -11.546875 14.25 -9.921875 L 14.25 0 L 12.171875 0 L 11.171875 -1.28125 C 10.609375 -0.84375 9.945312 -0.457031 9.1875 -0.125 C 8.4375 0.207031 7.6875 0.375 6.9375 0.375 Z M 6.9375 0.375 "/></g></g></g><g fill="#203340" fill-opacity="1"><g transform="translate(227.025487, 230.191364)"><g><path d="M 10.203125 -15.09375 L 11.015625 -11.859375 C 10.328125 -11.859375 9.53125 -11.660156 8.625 -11.265625 C 7.726562 -10.867188 6.84375 -10.289062 5.96875 -9.53125 L 5.96875 0 L 1.9375 0 L 1.9375 -15.09375 L 4.046875 -15.09375 L 5.390625 -12.890625 C 6.003906 -13.421875 6.757812 -13.921875 7.65625 -14.390625 C 8.550781 -14.859375 9.398438 -15.09375 10.203125 -15.09375 Z M 10.203125 -15.09375 "/></g></g></g><g fill="#203340" fill-opacity="1"><g transform="translate(241.467886, 230.191364)"><g><path d="M 9.734375 0.375 C 7.128906 0.375 5.070312 -0.335938 3.5625 -1.765625 C 2.0625 -3.203125 1.3125 -5.125 1.3125 -7.53125 C 1.3125 -9.9375 1.988281 -11.863281 3.34375 -13.3125 C 4.707031 -14.769531 6.5625 -15.5 8.90625 -15.5 C 11.269531 -15.5 13.003906 -14.710938 14.109375 -13.140625 C 15.222656 -11.578125 15.78125 -9.726562 15.78125 -7.59375 L 15.78125 -6.34375 L 5.609375 -6.34375 C 5.785156 -5.351562 6.238281 -4.5625 6.96875 -3.96875 C 7.695312 -3.375 8.648438 -3.078125 9.828125 -3.078125 C 10.515625 -3.078125 11.132812 -3.164062 11.6875 -3.34375 C 12.238281 -3.519531 12.878906 -3.773438 13.609375 -4.109375 L 14.78125 -1.1875 C 14.070312 -0.644531 13.210938 -0.25 12.203125 0 C 11.203125 0.25 10.378906 0.375 9.734375 0.375 Z M 11.953125 -9.0625 C 11.742188 -10.070312 11.367188 -10.820312 10.828125 -11.3125 C 10.285156 -11.800781 9.613281 -12.046875 8.8125 -12.046875 C 7.976562 -12.046875 7.28125 -11.789062 6.71875 -11.28125 C 6.15625 -10.769531 5.796875 -10.03125 5.640625 -9.0625 Z M 11.953125 -9.0625 "/></g></g></g><g fill="#203340" fill-opacity="1"><g transform="translate(52.479321, 254.883982)"><g><path d="M 7.359375 0 L 5.953125 0 C 5.472656 -0.625 4.988281 -1.253906 4.5 -1.890625 C 4.007812 -2.535156 3.523438 -3.171875 3.046875 -3.796875 C 2.910156 -3.628906 2.769531 -3.460938 2.625 -3.296875 C 2.476562 -3.140625 2.335938 -2.976562 2.203125 -2.8125 L 2.203125 0 L 1.0625 0 L 1.0625 -8.15625 L 2.203125 -8.15625 L 2.203125 -4.375 L 5.5625 -8.34375 C 5.695312 -8.226562 5.832031 -8.113281 5.96875 -8 C 6.113281 -7.894531 6.253906 -7.785156 6.390625 -7.671875 L 3.796875 -4.671875 Z M 7.359375 0 "/></g></g></g><g fill="#203340" fill-opacity="1"><g transform="translate(68.295333, 254.883982)"><g><path d="M 1.125 0 L 1.125 -8.15625 L 2.140625 -8.15625 L 5.8125 -3.03125 L 6.390625 -2.125 L 6.390625 -8.15625 L 7.546875 -8.15625 L 7.546875 0 L 6.515625 0 L 2.734375 -5.359375 L 2.28125 -6.078125 L 2.28125 0 Z M 1.125 0 "/></g></g></g><g fill="#203340" fill-opacity="1"><g transform="translate(85.359345, 254.883982)"><g><path d="M 0.78125 -4.046875 C 0.78125 -5.265625 1.09375 -6.28125 1.71875 -7.09375 C 2.34375 -7.90625 3.25 -8.328125 4.4375 -8.359375 C 5.707031 -8.359375 6.632812 -7.9375 7.21875 -7.09375 C 7.800781 -6.257812 8.09375 -5.269531 8.09375 -4.125 C 8.09375 -2.9375 7.773438 -1.925781 7.140625 -1.09375 C 6.503906 -0.269531 5.59375 0.148438 4.40625 0.171875 C 3.144531 0.171875 2.222656 -0.242188 1.640625 -1.078125 C 1.066406 -1.910156 0.78125 -2.898438 0.78125 -4.046875 Z M 1.984375 -4.0625 C 1.984375 -3.144531 2.175781 -2.375 2.5625 -1.75 C 2.945312 -1.125 3.554688 -0.8125 4.390625 -0.8125 C 5.148438 -0.8125 5.75 -1.101562 6.1875 -1.6875 C 6.632812 -2.269531 6.859375 -3.082031 6.859375 -4.125 C 6.859375 -5.03125 6.664062 -5.796875 6.28125 -6.421875 C 5.90625 -7.046875 5.300781 -7.359375 4.46875 -7.359375 C 3.71875 -7.359375 3.113281 -7.050781 2.65625 -6.4375 C 2.207031 -5.820312 1.984375 -5.03125 1.984375 -4.0625 Z M 1.984375 -4.0625 "/></g></g></g><g fill="#203340" fill-opacity="1"><g transform="translate(102.61537, 254.883982)"><g><path d="M 8.046875 0 L 5.921875 -6.390625 L 3.890625 0 L 2.796875 0 L 0.078125 -7.984375 L 1.203125 -8.15625 L 3.34375 -1.625 L 5.40625 -8.15625 L 6.484375 -8.15625 L 8.640625 -1.625 L 10.6875 -8.15625 L 11.84375 -8.15625 L 9.140625 0 Z M 8.046875 0 "/></g></g></g><g fill="#203340" fill-opacity="1"><g transform="translate(122.907391, 254.883982)"><g><path d="M 6.109375 0 L 1.125 0 L 1.125 -8.15625 L 2.28125 -8.15625 L 2.28125 -0.90625 L 5.96875 -0.90625 Z M 6.109375 0 "/></g></g></g><g fill="#203340" fill-opacity="1"><g transform="translate(137.607406, 254.883982)"><g><path d="M 1.125 0 L 1.125 -8.15625 L 5.71875 -8.15625 C 5.75 -8.007812 5.773438 -7.863281 5.796875 -7.71875 C 5.816406 -7.570312 5.84375 -7.421875 5.875 -7.265625 L 2.28125 -7.265625 L 2.28125 -4.59375 L 4.578125 -4.59375 C 4.597656 -4.445312 4.617188 -4.296875 4.640625 -4.140625 C 4.671875 -3.992188 4.703125 -3.847656 4.734375 -3.703125 L 2.28125 -3.703125 L 2.28125 -0.90625 L 6.15625 -0.90625 L 6.3125 0 Z M 1.125 0 "/></g></g></g><g fill="#203340" fill-opacity="1"><g transform="translate(152.631414, 254.883982)"><g><path d="M 1.125 0 L 1.125 -8.15625 L 3.953125 -8.15625 C 5.210938 -8.15625 6.128906 -7.769531 6.703125 -7 C 7.285156 -6.226562 7.578125 -5.269531 7.578125 -4.125 C 7.578125 -2.9375 7.257812 -1.953125 6.625 -1.171875 C 6 -0.390625 5.09375 0 3.90625 0 Z M 4 -7.171875 L 2.28125 -7.171875 L 2.28125 -0.953125 L 3.90625 -0.953125 C 4.65625 -0.953125 5.257812 -1.21875 5.71875 -1.75 C 6.1875 -2.289062 6.421875 -3.078125 6.421875 -4.109375 C 6.421875 -5.015625 6.222656 -5.75 5.828125 -6.3125 C 5.441406 -6.882812 4.832031 -7.171875 4 -7.171875 Z M 4 -7.171875 "/></g></g></g><g fill="#203340" fill-opacity="1"><g transform="translate(169.407434, 254.883982)"><g><path d="M 4.25 -4.28125 L 7 -4.28125 L 7 -0.796875 C 7 -0.734375 6.992188 -0.664062 6.984375 -0.59375 C 6.984375 -0.53125 6.984375 -0.46875 6.984375 -0.40625 L 7 -0.390625 C 6.726562 -0.242188 6.367188 -0.113281 5.921875 0 C 5.472656 0.113281 5.039062 0.171875 4.625 0.171875 C 3.363281 0.171875 2.40625 -0.226562 1.75 -1.03125 C 1.101562 -1.84375 0.78125 -2.84375 0.78125 -4.03125 C 0.78125 -5.289062 1.140625 -6.320312 1.859375 -7.125 C 2.585938 -7.925781 3.550781 -8.328125 4.75 -8.328125 C 5 -8.328125 5.34375 -8.285156 5.78125 -8.203125 C 6.21875 -8.128906 6.578125 -8.007812 6.859375 -7.84375 L 6.5 -7.015625 C 6.207031 -7.109375 5.941406 -7.1875 5.703125 -7.25 C 5.472656 -7.3125 5.164062 -7.34375 4.78125 -7.34375 C 3.988281 -7.34375 3.320312 -7.0625 2.78125 -6.5 C 2.25 -5.9375 1.984375 -5.117188 1.984375 -4.046875 C 1.984375 -3.054688 2.210938 -2.269531 2.671875 -1.6875 C 3.140625 -1.101562 3.78125 -0.8125 4.59375 -0.8125 C 4.863281 -0.8125 5.109375 -0.832031 5.328125 -0.875 C 5.546875 -0.914062 5.742188 -0.960938 5.921875 -1.015625 L 5.921875 -3.40625 L 4.15625 -3.40625 Z M 4.25 -4.28125 "/></g></g></g><g fill="#203340" fill-opacity="1"><g transform="translate(185.679443, 254.883982)"><g><path d="M 1.125 0 L 1.125 -8.15625 L 5.71875 -8.15625 C 5.75 -8.007812 5.773438 -7.863281 5.796875 -7.71875 C 5.816406 -7.570312 5.84375 -7.421875 5.875 -7.265625 L 2.28125 -7.265625 L 2.28125 -4.59375 L 4.578125 -4.59375 C 4.597656 -4.445312 4.617188 -4.296875 4.640625 -4.140625 C 4.671875 -3.992188 4.703125 -3.847656 4.734375 -3.703125 L 2.28125 -3.703125 L 2.28125 -0.90625 L 6.15625 -0.90625 L 6.3125 0 Z M 1.125 0 "/></g></g></g><g fill="#203340" fill-opacity="1"><g transform="translate(200.703452, 254.883982)"><g/></g></g><g fill="#203340" fill-opacity="1"><g transform="translate(211.935449, 254.883982)"><g><path d="M 1.125 0 L 1.125 -8.15625 L 2.28125 -8.15625 L 2.28125 0 Z M 1.125 0 "/></g></g></g><g fill="#203340" fill-opacity="1"><g transform="translate(223.743451, 254.883982)"><g><path d="M 0.96875 -1.359375 C 1.195312 -1.242188 1.5 -1.128906 1.875 -1.015625 C 2.25 -0.898438 2.617188 -0.84375 2.984375 -0.84375 C 3.566406 -0.84375 4.007812 -0.945312 4.3125 -1.15625 C 4.625 -1.375 4.78125 -1.660156 4.78125 -2.015625 C 4.78125 -2.828125 4.078125 -3.425781 2.671875 -3.8125 C 1.265625 -4.195312 0.5625 -5.003906 0.5625 -6.234375 C 0.5625 -6.828125 0.796875 -7.328125 1.265625 -7.734375 C 1.742188 -8.148438 2.398438 -8.359375 3.234375 -8.359375 C 3.648438 -8.359375 4.046875 -8.300781 4.421875 -8.1875 C 4.796875 -8.070312 5.125 -7.945312 5.40625 -7.8125 C 5.34375 -7.65625 5.273438 -7.5 5.203125 -7.34375 C 5.128906 -7.195312 5.066406 -7.050781 5.015625 -6.90625 C 4.804688 -7.007812 4.566406 -7.101562 4.296875 -7.1875 C 4.035156 -7.28125 3.710938 -7.328125 3.328125 -7.328125 C 2.867188 -7.328125 2.484375 -7.238281 2.171875 -7.0625 C 1.867188 -6.882812 1.71875 -6.617188 1.71875 -6.265625 C 1.71875 -5.441406 2.421875 -4.828125 3.828125 -4.421875 C 5.234375 -4.023438 5.9375 -3.234375 5.9375 -2.046875 C 5.9375 -1.398438 5.679688 -0.867188 5.171875 -0.453125 C 4.671875 -0.046875 3.945312 0.15625 3 0.15625 C 2.65625 0.15625 2.226562 0.09375 1.71875 -0.03125 C 1.207031 -0.164062 0.867188 -0.300781 0.703125 -0.4375 C 0.742188 -0.59375 0.785156 -0.742188 0.828125 -0.890625 C 0.878906 -1.046875 0.925781 -1.203125 0.96875 -1.359375 Z M 0.96875 -1.359375 "/></g></g></g><g fill="#203340" fill-opacity="1"><g transform="translate(238.647457, 254.883982)"><g/></g></g><g fill="#203340" fill-opacity="1"><g transform="translate(249.879455, 254.883982)"><g><path d="M 1.125 0 L 1.125 -8.15625 L 3.46875 -8.15625 C 4.332031 -8.15625 5.0625 -7.957031 5.65625 -7.5625 C 6.25 -7.175781 6.546875 -6.523438 6.546875 -5.609375 C 6.546875 -4.710938 6.222656 -4.050781 5.578125 -3.625 C 4.941406 -3.207031 4.195312 -3 3.34375 -3 L 2.28125 -3 L 2.28125 0 Z M 3.453125 -7.1875 L 2.28125 -7.1875 L 2.28125 -3.953125 L 3.390625 -3.953125 C 3.941406 -3.953125 4.398438 -4.078125 4.765625 -4.328125 C 5.128906 -4.585938 5.328125 -5 5.359375 -5.5625 C 5.359375 -6.175781 5.1875 -6.597656 4.84375 -6.828125 C 4.5 -7.066406 4.035156 -7.1875 3.453125 -7.1875 Z M 3.453125 -7.1875 "/></g></g></g><g fill="#203340" fill-opacity="1"><g transform="translate(265.383475, 254.883982)"><g><path d="M 0.78125 -4.046875 C 0.78125 -5.265625 1.09375 -6.28125 1.71875 -7.09375 C 2.34375 -7.90625 3.25 -8.328125 4.4375 -8.359375 C 5.707031 -8.359375 6.632812 -7.9375 7.21875 -7.09375 C 7.800781 -6.257812 8.09375 -5.269531 8.09375 -4.125 C 8.09375 -2.9375 7.773438 -1.925781 7.140625 -1.09375 C 6.503906 -0.269531 5.59375 0.148438 4.40625 0.171875 C 3.144531 0.171875 2.222656 -0.242188 1.640625 -1.078125 C 1.066406 -1.910156 0.78125 -2.898438 0.78125 -4.046875 Z M 1.984375 -4.0625 C 1.984375 -3.144531 2.175781 -2.375 2.5625 -1.75 C 2.945312 -1.125 3.554688 -0.8125 4.390625 -0.8125 C 5.148438 -0.8125 5.75 -1.101562 6.1875 -1.6875 C 6.632812 -2.269531 6.859375 -3.082031 6.859375 -4.125 C 6.859375 -5.03125 6.664062 -5.796875 6.28125 -6.421875 C 5.90625 -7.046875 5.300781 -7.359375 4.46875 -7.359375 C 3.71875 -7.359375 3.113281 -7.050781 2.65625 -6.4375 C 2.207031 -5.820312 1.984375 -5.03125 1.984375 -4.0625 Z M 1.984375 -4.0625 "/></g></g></g><g fill="#203340" fill-opacity="1"><g transform="translate(282.639493, 254.883982)"><g><path d="M 8.046875 0 L 5.921875 -6.390625 L 3.890625 0 L 2.796875 0 L 0.078125 -7.984375 L 1.203125 -8.15625 L 3.34375 -1.625 L 5.40625 -8.15625 L 6.484375 -8.15625 L 8.640625 -1.625 L 10.6875 -8.15625 L 11.84375 -8.15625 L 9.140625 0 Z M 8.046875 0 "/></g></g></g><g fill="#203340" fill-opacity="1"><g transform="translate(302.931514, 254.883982)"><g><path d="M 1.125 0 L 1.125 -8.15625 L 5.71875 -8.15625 C 5.75 -8.007812 5.773438 -7.863281 5.796875 -7.71875 C 5.816406 -7.570312 5.84375 -7.421875 5.875 -7.265625 L 2.28125 -7.265625 L 2.28125 -4.59375 L 4.578125 -4.59375 C 4.597656 -4.445312 4.617188 -4.296875 4.640625 -4.140625 C 4.671875 -3.992188 4.703125 -3.847656 4.734375 -3.703125 L 2.28125 -3.703125 L 2.28125 -0.90625 L 6.15625 -0.90625 L 6.3125 0 Z M 1.125 0 "/></g></g></g><g fill="#203340" fill-opacity="1"><g transform="translate(317.955523, 254.883982)"><g><path d="M 3.453125 -7.1875 L 2.28125 -7.1875 L 2.28125 -4.203125 L 3.390625 -4.203125 C 3.929688 -4.203125 4.390625 -4.3125 4.765625 -4.53125 C 5.148438 -4.75 5.347656 -5.132812 5.359375 -5.6875 C 5.359375 -6.257812 5.179688 -6.648438 4.828125 -6.859375 C 4.484375 -7.078125 4.023438 -7.1875 3.453125 -7.1875 Z M 5.921875 0 L 4.109375 -3.296875 C 3.972656 -3.285156 3.84375 -3.273438 3.71875 -3.265625 C 3.601562 -3.265625 3.476562 -3.265625 3.34375 -3.265625 L 2.28125 -3.265625 L 2.28125 0 L 1.125 0 L 1.125 -8.15625 L 3.46875 -8.15625 C 4.332031 -8.15625 5.0625 -7.960938 5.65625 -7.578125 C 6.25 -7.203125 6.546875 -6.585938 6.546875 -5.734375 C 6.546875 -5.203125 6.410156 -4.753906 6.140625 -4.390625 C 5.878906 -4.035156 5.539062 -3.769531 5.125 -3.59375 L 7.171875 0 Z M 5.921875 0 "/></g></g></g></svg>